<?xml version="1.0" encoding="UTF-8"?><svg id="Layer_1" xmlns="http://www.w3.org/2000/svg" viewBox="0 0 200 200"><defs><style>.cls-1{fill:#fdd1a3;}.cls-2{fill:#fff1dd;}.cls-3{fill:#ffe4c1;}.cls-4{fill:#e2c29f;}.cls-5{fill:#c9a989;}</style></defs><path class="cls-3" d="M10.32,108.36c3.27-18.88-.78-20.53,3.24-31.13,.69-1.82,6.47-16.42,21.21-24.76,11.21-6.34,15.24-1.52,25.78-7.71,16.4-9.63,13.18-21.98,25.12-26.6,13.36-5.17,21.76,11.53,48.88,9.8,12.56-.8,17.16-5.09,23.82-1.28,8.1,4.65,5.02,13.14,14.58,26.22,9.74,13.33,17.74,11.09,19.45,19.69,2.1,10.52-8.85,18.91-6.53,32.58,.48,2.83,.95,4.69,1.89,7.22,3.32,8.96,6.61,9.28,7.29,15.61,1.14,10.58-6.59,22.98-17.01,27.75-11.47,5.25-17.05-2.93-28.76,1.73-14.2,5.65-11.4,19.81-23.58,24.34-14.34,5.32-22.95-12.55-44.47-10.46-17.12,1.66-21.6,13.94-32,10.41-9.82-3.34-6.89-14.65-21.27-28.49-11.06-10.64-18.54-9.48-22.16-18.13-2.83-6.76,1.57-9.6,4.55-26.8h0Z"/><g><path class="cls-1" d="M195.03,128.02c-.68-6.33-3.97-6.65-7.29-15.61-.94-2.53-1.41-4.39-1.89-7.22-2.32-13.67,8.63-22.06,6.53-32.58-1.72-8.61-9.71-6.37-19.45-19.69-9.56-13.08-6.48-21.57-14.58-26.22-4.14-2.38-7.49-1.61-12.45-.5,.32,.15,.64,.31,.97,.5,8.1,4.65,5.02,13.14,14.58,26.22,9.74,13.33,17.74,11.09,19.45,19.69,2.1,10.52-8.85,18.91-6.53,32.58,.48,2.83,.95,4.69,1.89,7.22,3.32,8.96,6.61,9.28,7.29,15.61,1.14,10.58-6.59,22.98-17.01,27.75-1,.46-1.95,.81-2.87,1.08,4.31,.81,8.59,1.56,14.35-1.08,10.43-4.77,18.16-17.17,17.01-27.75h0Z"/><path class="cls-1" d="M137.77,157.5c-14.1,5.61-11.43,19.63-23.35,24.25,3.57,1.24,7.18,1.6,11.26,.09,12.19-4.52,9.39-18.69,23.58-24.34,.79-.32,1.56-.57,2.3-.77-4.07-.76-8.24-1.43-13.78,.77h0Z"/></g><g><g><path class="cls-5" d="M76.32,146c-2.78-.94-9.17-3.57-13.62-10.12-.95-1.4-1.68-2.78-2.24-4.07-.47-1.08-1.97-1.11-2.48-.05-1.09,2.26-2.17,5.71-1.3,9.57,1.1,4.87,5.42,10.86,11.19,10.52,5.05-.29,8.07-5.24,8.43-5.86h0Z"/><path class="cls-5" d="M100.8,137.91c-2.78-.94-9.17-3.57-13.62-10.12-.95-1.4-1.68-2.78-2.24-4.07-.47-1.08-1.97-1.11-2.48-.05-1.09,2.26-2.17,5.71-1.3,9.57,1.1,4.87,5.42,10.86,11.19,10.52,5.05-.29,8.07-5.24,8.43-5.86h0Z"/><path class="cls-5" d="M128.5,122.75c-2.78-.94-9.17-3.57-13.62-10.12-.95-1.4-1.68-2.78-2.24-4.07-.47-1.08-1.97-1.11-2.48-.05-1.09,2.26-2.17,5.71-1.3,9.57,1.1,4.87,5.42,10.86,11.19,10.52,5.05-.29,8.07-5.24,8.43-5.86h0Z"/></g><path class="cls-4" d="M135.07,111.46c-11.64,5.83-20.4,10.57-21.61,11.24-13.11,7.13-11.12,6.46-16.3,9.05-11.85,5.91-22.31,11.02-36.36,12.83-4.46,.58-8.3,.69-11.19,.67-.98,0-1.81,.71-1.95,1.68-.2,1.4-.18,3.11,.58,4.79,1.82,4,6.66,5.15,10.28,5.94,2.72,.6,9.59,1.77,21.48-1.37,5.42-1.43,9.82-3.25,18.61-6.88,7.57-3.13,8.92-4.05,12.85-4.9,7.21-1.56,11.76-.41,16.14-.3,8.8,.23,20.44-4.17,27.21-11.42,9.64-10.33,8.97-24.25,8.71-27.69-.37-.63-1.08-1.64-2.28-2.34-3.07-1.77-7,.14-17.57,4.6-1.99,.84-3.73,1.64-8.61,4.09Z"/><path class="cls-5" d="M54.6,86.98c-1.26,1.33-4.69,5.29-5.21,11.31-.15,1.71-.03,3.25,.19,4.57,.2,1.15-1.07,2-2.05,1.38-2.12-1.33-4.82-3.64-6.14-7.32-1.99-5.56-.62-13.61,3.79-14.89,2.92-.84,6.64,1.43,9.42,4.95h0Z"/><path class="cls-5" d="M78.13,99.68c-1.26,1.33-4.69,5.29-5.21,11.31-.15,1.71-.03,3.25,.19,4.57,.2,1.15-1.07,2-2.05,1.38-2.12-1.33-4.82-3.64-6.14-7.32-1.99-5.56-.62-13.61,3.79-14.89,2.92-.84,6.64,1.43,9.42,4.95h0Z"/><path class="cls-5" d="M99.82,99.06c-.79,1.65-2.83,6.48-1.48,12.37,.39,1.67,.97,3.11,1.59,4.29,.54,1.03-.4,2.23-1.53,1.94-2.43-.61-5.7-1.98-8.09-5.07-3.61-4.67-4.78-12.76-.98-15.33,2.52-1.7,6.76-.68,10.49,1.81h0Z"/><path class="cls-4" d="M166.31,103.33c2.79-4.49,2.4-10.42,1.97-15.46-1.19-13.77-8.38-27.05-19.01-35.85-10.38-8.59-27.62-14.1-40.42-7.86-3.77,1.84-6.97,4.65-10.55,6.83-6.47,3.92-13.12,3.69-20.02,5.87-7.99,2.51-14.75,9.31-23.13,9.19-4.83-.07-8.95-1.68-13.47,.64-4.39,2.25-7.7,6.21-9.39,10.83-.35,.97-.61,1.91-.79,2.81-.56,2.85,1.85,5.43,4.73,5.06,3.64-.46,7,.03,10.12,2.07,2.48,1.62,4.54,3.79,6.74,5.77,9.95,8.93,23.77,14.07,36.93,11.7,6.11-1.1,11.82-3.71,17.61-5.95,4.2-1.62,8.29-2.91,12.65-1.02,2.93,1.27,5.41,3.36,8.03,5.19,5.61,3.91,12.31,6.32,19.16,6.66,6.33,.31,15.31-.81,18.84-6.49h0Z"/><path class="cls-4" d="M108.3,95.74c-4.36-1.89-8.45-.6-12.65,1.02-5.79,2.24-11.5,4.85-17.61,5.95-2.61,.47-5.24,.64-7.86,.55,6.39,2.15,13.2,2.87,19.84,1.68,6.11-1.1,11.82-3.71,17.61-5.95,1.35-.52,2.69-1.01,4.04-1.37-1.08-.71-2.19-1.36-3.37-1.88h0Z"/><path class="cls-1" d="M112.76,68.86c-1.39-2.9-4.13-4.2-4.87-4.55-4.64-2.13-9.22-.09-10.36,.42-8.13,3.63-9.24,13.47-9.33,14.4-.24,2.45-.43,4.45,.8,6.1,3.2,4.31,14.04,3.56,19.86-2.23,3.24-3.22,6.23-9.29,3.9-14.14Z"/><path class="cls-1" d="M152.24,85.58c-1.77-5.13-6.1-7.53-7.4-8.22-2.54-1.36-8.46-3.66-10.53-1.39-2.13,2.34,.66,8.63,4.16,12.34,4.16,4.4,11.28,7.24,13.76,4.93,1.99-1.85,.41-6.48,0-7.65Z"/><path class="cls-1" d="M60.76,75.26c-2.39-.11-5.72,.89-6.12,2.89-.36,1.82,1.9,3.58,3.14,4.55,1.61,1.26,3.71,2.89,6.1,2.12,2.09-.67,3.74-2.97,3.49-5.15-.36-3.06-4.3-4.31-6.61-4.41Z"/></g><g><circle class="cls-2" cx="25.49" cy="104.06" r="2.87"/><circle class="cls-2" cx="92.25" cy="31.3" r="2.87"/><circle class="cls-2" cx="150.34" cy="39.7" r="2.87"/><circle class="cls-2" cx="175.58" cy="133.86" r="2.87"/><circle class="cls-2" cx="33.17" cy="136.21" r="2.87"/><circle class="cls-2" cx="124.98" cy="159.03" r="2.87"/></g></svg>