<?xml version="1.0" encoding="UTF-8"?><svg id="Layer_1" xmlns="http://www.w3.org/2000/svg" viewBox="0 0 200 200"><defs><style>.cls-1{fill:#fdd1a3;}.cls-2{fill:#ffe4c1;}.cls-3{fill:#e2c29f;}.cls-4{fill:#c9a989;}</style></defs><path class="cls-2" d="M70.43,2.59h50.68c2.48,0,4.85,1.03,6.54,2.84l21.29,22.81c1.24,1.33,2.87,2.25,4.65,2.64l16.88,3.64c3.4,.73,6.07,3.37,6.83,6.75l11.31,50.3v4.18s1.57,2.78,1.57,2.78l2.91,12.95c.38,1.71,.25,3.49-.38,5.13l-19.41,50.39c-.81,2.1-2.39,3.82-4.42,4.81l-12.78,6.22-3.28,.51-2.09,2.1-32.6,15.87c-1.71,.83-3.63,1.1-5.5,.76l-65.46-11.71c-2.33-.42-4.41-1.74-5.76-3.68l-13.66-19.59-.67-3.64-2.69-1.18-16.11-23.11c-1.2-1.71-1.75-3.79-1.56-5.87L13.25,56.72c.19-2.14,1.16-4.14,2.72-5.62l13.81-13.16,2.98-.78,1.27-3.28L64.25,5.06c1.66-1.59,3.88-2.47,6.18-2.47h0Z"/><path class="cls-1" d="M193.09,111.49l-2.91-12.95-1.55-2.78v-4.18s-11.32-50.3-11.32-50.3c-.76-3.38-3.42-6.02-6.83-6.75l-16.88-3.64c-1.79-.39-3.41-1.31-4.65-2.64L127.65,5.43c-1.69-1.81-4.06-2.84-6.54-2.84h-11.76c2.48,0,4.85,1.03,6.54,2.84l21.29,22.81c1.24,1.33,2.87,2.25,4.65,2.64l16.88,3.64c3.4,.73,6.07,3.37,6.83,6.75l15.78,70.22c.38,1.71,.25,3.49-.38,5.13l-19.41,50.39c-.81,2.1-2.39,3.82-4.42,4.81l-50.21,24.44,5.72,1.02c1.87,.33,3.8,.07,5.5-.76l32.6-15.87,2.09-2.1,3.28-.51,12.78-6.22c2.03-.99,3.61-2.7,4.42-4.81l19.41-50.39c.63-1.64,.76-3.42,.38-5.13h0Z"/><g><path class="cls-3" d="M70.33,47.95c-1.12-2.04-3.42-3.21-5.74-2.9l-16.88,2.26-13.68-13.44-4.25,4.06s.04,.05,.07,.07l13.81,13.57c1.26,1.24,2.99,1.81,4.74,1.58l16.84-2.25,5.38,9.81c.53,.97,1.54,1.53,2.58,1.53,.48,0,.96-.12,1.41-.36,1.42-.78,1.94-2.57,1.16-3.99l-5.45-9.93Z"/><path class="cls-3" d="M44.26,138.37l13.61-.5c1.62-.06,2.89-1.42,2.83-3.05-.06-1.62-1.43-2.87-3.05-2.83l-13.76,.51c-2.54,.09-4.72,1.88-5.32,4.35l-2.77,11.53-11.41,9.09,3.36,4.82c.05-.04,.11-.06,.16-.1l11.61-9.25c.99-.78,1.69-1.89,1.98-3.12l2.75-11.45Z"/><path class="cls-3" d="M155.72,177.43l-8.96-10.75,3.24-6.48c.73-1.45,.14-3.22-1.31-3.94-1.45-.73-3.22-.14-3.94,1.31l-3.3,6.59c-1.01,2.02-.73,4.45,.72,6.18l8.57,10.29,5.36-2.61c-.1-.21-.23-.41-.38-.6h0Z"/></g><path class="cls-4" d="M156.1,178.03c-.1-.21-.23-.41-.38-.6l-2.93-3.52-5.45,2.65,3.39,4.07,5.36-2.61Z"/><path class="cls-3" d="M188.61,91.57l-8.82-5.72c-1.93-1.25-4.41-1.22-6.31,.08l-4.78,3.29-9.79-2.45c-1.57-.39-3.17,.56-3.57,2.14-.39,1.58,.56,3.17,2.14,3.57l9.87,2.47c1.58,.4,3.26,.09,4.6-.83l4.74-3.26,11.24,7.29c.49,.32,1.05,.47,1.6,.47,.22,0,.43-.03,.65-.07l-1.57-6.97Z"/><path class="cls-4" d="M188.61,91.57l-8.82-5.72c-1.33-.86-2.92-1.12-4.4-.77l1.3,5.78h0s11.24,7.28,11.24,7.28c.49,.32,1.05,.47,1.6,.47,.22,0,.43-.03,.65-.07l-1.57-6.97Z"/><g><path class="cls-3" d="M115.68,148.73c-1.53,0-2.81-1.18-2.93-2.72l-1.58-21.46-8.88-12.15-8.88,12.15-1.58,21.46c-.12,1.62-1.54,2.84-3.15,2.72-1.62-.12-2.84-1.53-2.72-3.15l1.58-21.52c.08-1.06,.45-2.08,1.08-2.94l11.29-15.44c.55-.76,1.44-1.2,2.37-1.2s1.82,.45,2.37,1.2l11.29,15.44c.63,.86,1,1.88,1.08,2.94l1.58,21.51c.12,1.62-1.1,3.03-2.72,3.15-.07,0-.15,0-.22,0h0Z"/><path class="cls-3" d="M102.29,110.36c-1.62,0-2.94-1.32-2.94-2.94v-24.78c0-1.62,1.32-2.94,2.94-2.94s2.94,1.32,2.94,2.94v24.78c0,1.62-1.32,2.94-2.94,2.94Z"/><circle class="cls-3" cx="102.29" cy="63.22" r="9.02"/><path class="cls-3" d="M136.46,105.44c-.8,0-1.6-.32-2.18-.96l-17.17-18.9h-35.38c-1.39,0-2.73-.51-3.77-1.43l-16.37-14.55c-1.21-1.08-1.32-2.94-.25-4.15,1.08-1.21,2.94-1.32,4.15-.25l16.32,14.5h35.39c1.6,0,3.13,.68,4.21,1.86l17.23,18.96c1.09,1.2,1,3.06-.2,4.15-.56,.51-1.27,.76-1.98,.76Zm-19.26-19.86h0Z"/></g></svg>