<?xml version="1.0" encoding="UTF-8"?><svg id="Layer_1" xmlns="http://www.w3.org/2000/svg" viewBox="0 0 200 200"><defs><style>.cls-1{fill:#ea473b;}.cls-2{fill:#e8edf2;}.cls-3{fill:#90d8f9;}.cls-4{fill:#9facba;}.cls-5{fill:#c5d3dd;}.cls-6{fill:#52bde8;}.cls-7{fill:#75cef9;}</style></defs><circle class="cls-3" cx="100" cy="114.2" r="81.65"/><path class="cls-7" d="M31.23,114.2c0-22.36,8.99-42.61,23.55-57.36h103.33c-14.8-15-35.37-24.3-58.11-24.3s-43.24,9.27-58.05,24.23c0,0-.02,.01-.02,.02-14.58,14.75-23.59,35.02-23.59,57.4,0,45.1,36.56,81.65,81.65,81.65,2.17,0,4.32-.09,6.44-.25-42.08-3.29-75.21-38.47-75.21-81.4h0Z"/><path class="cls-7" d="M172.14,152.47c-1.09-.34-2.25-.52-3.43-.52h-31.46v31.46c0,1.12,.16,2.2,.46,3.23,14.65-7.64,26.68-19.59,34.43-34.17Z"/><path class="cls-7" d="M136.8,75.95c8.7-4.1,16.7-9.68,23.67-16.62-1.3-1.43-2.65-2.82-4.05-4.15-6.25,6.23-13.39,11.29-21.15,15.07-2.8-9.58-6.51-18.02-10.98-24.68-.89-1.33-2.69-1.68-4.02-.79-1.33,.89-1.68,2.69-.79,4.02,4.28,6.37,7.82,14.51,10.46,23.8-8.5,3.39-17.62,5.31-27.04,5.64v-31.06c0-1.6-1.3-2.9-2.9-2.9s-2.9,1.3-2.9,2.9v31.06c-9.42-.33-18.54-2.25-27.04-5.64,2.61-9.17,6.09-17.24,10.3-23.57,.89-1.33,.52-3.13-.81-4.02-1.33-.89-3.13-.52-4.02,.81-4.4,6.62-8.05,14.96-10.8,24.42-7.76-3.78-14.9-8.84-21.15-15.07-1.4,1.34-2.75,2.72-4.05,4.15,6.97,6.94,14.97,12.53,23.67,16.63-2.64,10.86-4.16,22.91-4.37,35.35H18.4c-.03,.96-.06,1.93-.06,2.9s.02,1.94,.06,2.9H58.84c.2,12.48,1.69,24.5,4.34,35.37-8.69,4.1-16.68,9.68-23.64,16.61,1.3,1.43,2.65,2.82,4.05,4.15,6.24-6.22,13.38-11.28,21.12-15.06,1.57,5.37,3.44,10.41,5.6,15,4.79,10.22,10.66,17.59,17.15,21.73,4.09,.63,8.28,.96,12.55,.96s8.46-.33,12.55-.96c6.49-4.13,12.36-11.51,17.15-21.73,2.15-4.59,4.02-9.62,5.59-14.98,3.45,1.68,9.45,5.3,12.65,7.49l3.76-1.32,2.5-1.6c-3.75-2.56-13.32-8.35-17.38-10.26,2.65-10.87,4.14-22.9,4.34-35.4h40.44c.03-.96,.06-1.93,.06-2.9s-.02-1.94-.06-2.9h-40.44c-.21-12.45-1.73-24.5-4.37-35.35h0Zm-39.69,116.73c-7.98-1.5-15.55-9.17-21.55-21.97-2.13-4.54-3.97-9.55-5.5-14.91,8.5-3.39,17.62-5.31,27.06-5.64v42.52h0Zm0-48.32c-9.93,.32-19.55,2.3-28.53,5.79-2.39-10.16-3.74-21.38-3.94-33.05h32.47v27.26Zm0-33.06h-32.47c.2-11.64,1.58-22.89,3.96-33.04,8.97,3.49,18.58,5.46,28.5,5.78v27.26h0Zm5.8-27.26c9.92-.32,19.53-2.29,28.51-5.78,2.38,10.14,3.76,21.39,3.96,33.04h-32.47v-27.26h0Zm21.55,86.67c-6.01,12.81-13.57,20.47-21.55,21.97v-42.52c9.38,.33,18.51,2.25,27.05,5.67-1.53,5.35-3.37,10.35-5.5,14.89h0Zm6.97-20.54c-9.03-3.52-18.65-5.49-28.53-5.81v-27.26h32.47c-.19,11.68-1.54,22.91-3.94,33.07h0Z"/><g><path class="cls-6" d="M79.55,45.02c-1.33-.89-3.13-.52-4.02,.81-2.18,3.27-4.17,6.97-5.96,11.01h6.37c1.36-2.82,2.84-5.44,4.41-7.81,.89-1.33,.52-3.13-.81-4.02Z"/><path class="cls-6" d="M100,44.29c-1.6,0-2.9,1.3-2.9,2.9v9.66h5.8v-9.66c0-1.6-1.3-2.9-2.9-2.9h0Z"/><path class="cls-6" d="M120.26,44.78c-1.33,.89-1.68,2.69-.79,4.02,1.64,2.43,3.16,5.13,4.57,8.04h6.38c-1.84-4.15-3.89-7.94-6.14-11.28-.89-1.33-2.69-1.68-4.02-.79Z"/><path class="cls-6" d="M147.94,165.68l3.76-1.32,2.5-1.6c-3.62-2.47-12.68-7.96-16.95-10.06v6.5c3.45,1.86,8.04,4.66,10.69,6.48h0Z"/><path class="cls-6" d="M43.58,173.23c2.23-2.23,4.58-4.3,7.03-6.22-1.25-1.47-2.45-2.99-3.59-4.55-2.6,2.05-5.1,4.25-7.48,6.62,1.3,1.43,2.65,2.82,4.05,4.15Z"/><path class="cls-6" d="M18.35,114.2c0,.97,.02,1.94,.06,2.9h12.89c-.03-.96-.06-1.93-.06-2.9s.02-1.94,.06-2.9h-12.89c-.03,.96-.06,1.93-.06,2.9Z"/><path class="cls-6" d="M80.84,189.32c2.12,2.25,4.33,4.12,6.62,5.58,4.09,.63,8.28,.96,12.55,.96,2.17,0,4.32-.09,6.44-.25,0,0,0,0,0,0-9.03-.71-17.64-2.88-25.61-6.29Z"/><path class="cls-6" d="M39.53,59.33c2.38,2.37,4.88,4.58,7.49,6.62,1.14-1.56,2.34-3.08,3.59-4.55-2.45-1.92-4.8-4-7.03-6.23-1.4,1.34-2.75,2.72-4.05,4.15Z"/></g><path class="cls-1" d="M146.91,163.55v19.87c0,1.68,2.04,2.53,3.23,1.34l4.6-4.6c.74-.74,1.94-.74,2.67,0l15.33,15.33c.74,.74,1.94,.74,2.67,0l5.37-5.37c.74-.74,.74-1.94,0-2.67l-15.33-15.33c-.74-.74-.74-1.94,0-2.67l4.6-4.6c1.19-1.19,.35-3.23-1.34-3.23h-19.87c-1.07,0-1.93,.87-1.93,1.93h0Z"/><path class="cls-2" d="M188.31,47.19H11.69c-4.27,0-7.73-3.46-7.73-7.73V11.69c0-4.27,3.46-7.73,7.73-7.73H188.31c4.27,0,7.73,3.46,7.73,7.73v27.76c0,4.27-3.46,7.73-7.73,7.73Z"/><path class="cls-5" d="M12.31,39.46V11.69c0-4.27,3.46-7.73,7.73-7.73H11.69c-4.27,0-7.73,3.46-7.73,7.73v27.76c0,4.27,3.46,7.73,7.73,7.73h8.35c-4.27,0-7.73-3.46-7.73-7.73Z"/><path class="cls-4" d="M38.66,14.38c-1.57-.31-3.1,.71-3.41,2.28l-1.39,6.98-2.25-7.3c-.47-1.53-2.09-2.39-3.62-1.92-1.02,.31-1.74,1.14-1.96,2.1l-2.2,7.11-1.39-7.01c-.31-1.57-1.84-2.59-3.41-2.28-1.57,.31-2.59,1.84-2.28,3.41l3.33,16.82c.03,.14,.06,.27,.11,.41,.47,1.31,1.71,2.18,3.09,2.18h.02c1.4,0,2.64-.9,3.09-2.23,0-.02,.02-.05,.02-.08l2.42-7.83,2.41,7.83s.02,.08,.04,.12c.47,1.31,1.71,2.18,3.09,2.18h.02c1.4,0,2.64-.9,3.09-2.23,.04-.12,.07-.24,.1-.37l3.34-16.78c.31-1.57-.71-3.1-2.28-3.41h0Z"/><path class="cls-4" d="M67.24,14.38c-1.57-.31-3.1,.71-3.41,2.28l-1.39,6.98-2.25-7.3c-.47-1.53-2.09-2.39-3.62-1.92-1.02,.31-1.74,1.14-1.96,2.1l-2.2,7.11-1.39-7.01c-.31-1.57-1.83-2.59-3.41-2.28-1.57,.31-2.59,1.84-2.28,3.41l3.33,16.82c.03,.14,.06,.27,.11,.41,.47,1.31,1.71,2.18,3.09,2.18h.02c1.4,0,2.64-.9,3.09-2.23,0-.02,.02-.05,.02-.08l2.42-7.83,2.41,7.83s.02,.08,.04,.12c.47,1.31,1.71,2.18,3.09,2.18h.02c1.4,0,2.64-.9,3.09-2.23,.04-.12,.07-.24,.1-.37l3.34-16.78c.31-1.57-.71-3.1-2.28-3.41h0Z"/><path class="cls-4" d="M95.81,14.38c-1.57-.31-3.1,.71-3.41,2.28l-1.39,6.98-2.25-7.3c-.47-1.53-2.09-2.39-3.62-1.92-1.02,.31-1.74,1.14-1.96,2.1l-2.2,7.11-1.39-7.01c-.31-1.57-1.84-2.59-3.41-2.28-1.57,.31-2.59,1.84-2.28,3.41l3.33,16.82c.03,.14,.06,.27,.11,.41,.47,1.31,1.71,2.18,3.09,2.18h.02c1.4,0,2.64-.9,3.09-2.23,0-.02,.02-.05,.02-.08l2.42-7.83,2.41,7.83s.02,.08,.04,.12c.47,1.31,1.71,2.18,3.09,2.18h.02c1.4,0,2.64-.9,3.09-2.23,.04-.12,.07-.24,.1-.37l3.34-16.78c.31-1.57-.71-3.1-2.28-3.41Z"/><path class="cls-4" d="M181.65,28.63h-2.18c-1.6,0-2.9-1.3-2.9-2.9s1.3-2.9,2.9-2.9h2.18c1.6,0,2.9,1.3,2.9,2.9s-1.3,2.9-2.9,2.9Z"/><path class="cls-4" d="M166.07,28.63h-2.18c-1.6,0-2.9-1.3-2.9-2.9s1.3-2.9,2.9-2.9h2.18c1.6,0,2.9,1.3,2.9,2.9s-1.3,2.9-2.9,2.9Z"/><path class="cls-4" d="M150.35,28.63h-2.18c-1.6,0-2.9-1.3-2.9-2.9s1.3-2.9,2.9-2.9h2.18c1.6,0,2.9,1.3,2.9,2.9s-1.3,2.9-2.9,2.9Z"/></svg>