<?xml version="1.0" encoding="UTF-8"?><svg id="Layer_1" xmlns="http://www.w3.org/2000/svg" viewBox="0 0 200 200"><defs><style>.cls-1{fill:#ea473b;}.cls-2{fill:#ef9614;}.cls-3{fill:#f2d422;}.cls-4{fill:#ffa92c;}.cls-5{fill:#90d8f9;}.cls-6{fill:#7bbfd6;}.cls-7{fill:#989da0;}.cls-8{fill:#bababa;}.cls-9{fill:#bfc0c1;}.cls-10{fill:#ddd;}.cls-11{fill:#ddbb14;}.cls-12{fill:#d63322;}.cls-13{fill:#414356;}.cls-14{fill:#6eb9d6;}.cls-15{fill:#585a60;}.cls-16{fill:#838384;}.cls-17{fill:#75cef9;}</style></defs><g><path class="cls-10" d="M179.38,138.08l-30.34-20.99c-1.34-.92-3.17-.59-4.09,.75-.92,1.34-.59,3.17,.75,4.09l27.8,19.24-8.69,25.4c-.53,1.54,.29,3.21,1.83,3.74,.32,.11,.64,.16,.95,.16,1.22,0,2.37-.77,2.78-1.99l8.67-25.35c.42-.21,.8-.53,1.08-.95,.92-1.34,.59-3.17-.75-4.09Z"/><path class="cls-10" d="M49.71,119.89c-.92-1.34-2.76-1.67-4.09-.75l-26.96,18.09c-1.3,.54-2.03,1.93-1.75,3.3,.04,.22,.1,.45,.2,.66l9.33,27.28c.42,1.22,1.56,1.99,2.78,1.99,.32,0,.64-.05,.95-.16,1.54-.53,2.36-2.2,1.83-3.74l-8.69-25.4,25.65-17.18c1.34-.92,1.67-2.76,.75-4.09Z"/></g><g><path class="cls-15" d="M146.3,112.05h-7.92v20.6h7.92c2.86,0,5.17-2.32,5.17-5.17v-10.25c0-2.86-2.32-5.18-5.17-5.18Z"/><path class="cls-15" d="M56.43,112.05h-5.92c-2.86,0-5.17,2.32-5.17,5.17v10.25c0,2.86,2.32,5.17,5.17,5.17h7.92v-20.6h-2Z"/></g><g><path class="cls-13" d="M147.86,112.28c-.93-.29-.65-.24-9.47-.24v20.6c8.79,0,8.49,.07,9.47-.24v-20.12Z"/><path class="cls-13" d="M52.87,127.47v-10.25c0-2.86,2.32-5.17,5.17-5.17h-7.55c-2.86,0-5.17,2.32-5.17,5.17v10.25c0,2.86,2.32,5.17,5.17,5.17h7.55c-2.86,0-5.17-2.32-5.17-5.17Z"/></g><path class="cls-1" d="M159.21,165.37c-1.04,0-2.06,.37-2.86,1.08l-10.96,9.69c-1.15,1.02-1.68,2.58-1.37,4.09l1.74,8.55c.47,2.33,2.75,3.84,5.09,3.37,2.33-.47,3.84-2.75,3.37-5.09l-1.24-6.11,7.23-6.39,9.15,3.06,1.92,9.46-4.87,4.31c-1.78,1.58-1.95,4.3-.37,6.09,1.58,1.78,4.3,1.95,6.09,.37l6.73-5.96c1.15-1.02,1.68-2.58,1.37-4.09l-2.92-14.34c-.31-1.51-1.4-2.74-2.86-3.23l-13.87-4.64c-.45-.15-.91-.22-1.37-.22Z"/><path class="cls-12" d="M150.86,189.96l-1.74-8.55c-.31-1.51,.21-3.07,1.37-4.09l10.96-9.69c.62-.55,1.37-.89,2.16-1.02l-3.03-1.01c-.45-.15-.91-.22-1.37-.22-1.04,0-2.06,.37-2.86,1.08l-10.96,9.69c-1.15,1.02-1.68,2.58-1.37,4.09l1.74,8.55c.47,2.33,2.75,3.84,5.09,3.37,.32-.07,.63-.17,.92-.3-.44-.53-.76-1.17-.9-1.89Z"/><path class="cls-1" d="M37.6,165.37c1.04,0,2.06,.37,2.86,1.08l10.96,9.69c1.15,1.02,1.68,2.58,1.37,4.09l-1.74,8.55c-.47,2.33-2.75,3.84-5.09,3.37-2.33-.47-3.84-2.75-3.37-5.09l1.24-6.11-7.23-6.39-9.15,3.06-1.92,9.46,4.87,4.31c1.78,1.58,1.95,4.3,.37,6.09-1.58,1.78-4.3,1.95-6.09,.37l-6.73-5.96c-1.15-1.02-1.68-2.58-1.37-4.09l2.92-14.34c.31-1.51,1.4-2.74,2.86-3.23l13.87-4.64c.45-.15,.91-.22,1.37-.22Z"/><path class="cls-12" d="M29.59,195.91l-6.73-5.96c-1.15-1.02-1.68-2.58-1.37-4.09l2.92-14.34c.2-1,.75-1.87,1.52-2.49l-3.57,1.19c-1.46,.49-2.55,1.72-2.86,3.23l-2.92,14.34c-.31,1.51,.21,3.07,1.37,4.09l6.73,5.96c1.78,1.58,4.51,1.41,6.09-.37,.18-.21,.34-.43,.47-.65-.6-.17-1.16-.47-1.66-.91Z"/><g><circle class="cls-15" cx="177.01" cy="139.79" r="7.12"/><circle class="cls-15" cx="19.8" cy="139.79" r="7.12"/></g><g><path class="cls-13" d="M177.01,139.79c0-2.63,1.43-4.92,3.56-6.16-1.05-.61-2.26-.96-3.56-.96-3.93,0-7.11,3.19-7.11,7.12s3.19,7.12,7.11,7.12c1.3,0,2.51-.35,3.56-.96-2.12-1.23-3.56-3.52-3.56-6.16Z"/><path class="cls-13" d="M19.8,139.79c0-2.63,1.43-4.92,3.56-6.16-1.05-.61-2.26-.96-3.56-.96-3.93,0-7.12,3.19-7.12,7.12s3.19,7.12,7.12,7.12c1.3,0,2.51-.35,3.56-.96-2.12-1.23-3.56-3.52-3.56-6.16Z"/></g><path class="cls-10" d="M98.4,37.64c-1.62,0-2.94-1.32-2.94-2.94v-14.09c0-1.62,1.32-2.94,2.94-2.94s2.94,1.32,2.94,2.94v14.09c0,1.63-1.32,2.94-2.94,2.94Z"/><path class="cls-7" d="M106.31,33.13h-15.81c-2.86,0-5.17,2.32-5.17,5.17v8.76h26.16v-8.76c0-2.86-2.32-5.17-5.17-5.17Z"/><path class="cls-16" d="M93.17,39.87v-1.57c0-2.86,2.32-5.17,5.17-5.17h-7.84c-2.86,0-5.17,2.32-5.17,5.17v8.76h7.84v-7.19Z"/><g><path class="cls-7" d="M98.28,21.9c-5.74,0-10.42-4.67-10.42-10.42s4.67-10.42,10.42-10.42,10.42,4.67,10.42,10.42-4.67,10.42-10.42,10.42Zm0-14.95c-2.5,0-4.53,2.03-4.53,4.53s2.03,4.53,4.53,4.53,4.53-2.03,4.53-4.53-2.03-4.53-4.53-4.53Z"/><path class="cls-7" d="M62.32,62.57h-6.52c-4.06,0-7.35,3.29-7.35,7.35v8.48c0,4.06,3.29,7.35,7.35,7.35h8.94v-23.19h-2.42Z"/><path class="cls-7" d="M141,62.57h-7.3v23.19h7.3c4.06,0,7.35-3.29,7.35-7.35v-8.48c0-4.06-3.29-7.35-7.35-7.35Z"/></g><g><path class="cls-16" d="M56.43,78.4v-8.48c0-4.06,3.29-7.35,7.35-7.35h-7.97c-4.06,0-7.35,3.29-7.35,7.35v8.48c0,4.06,3.29,7.35,7.35,7.35h7.97c-4.06,0-7.35-3.29-7.35-7.35Z"/><path class="cls-16" d="M141.67,62.61c-.22-.02-.45-.03-.67-.03h-7.3v23.19c8.13,0,7.48,.01,7.97-.03v-23.12h0Z"/></g><path class="cls-10" d="M135.21,102.84H61.6c-2.86,0-5.17,2.32-5.17,5.17v48.94c0,23.18,18.79,41.98,41.98,41.98s41.98-18.79,41.98-41.98v-48.94c0-2.86-2.31-5.17-5.17-5.17Z"/><path class="cls-9" d="M64.36,156.95v-48.94c0-2.86,2.31-5.17,5.17-5.17h-7.93c-2.86,0-5.17,2.32-5.17,5.17v48.94c0,24.62,21.15,44.11,45.94,41.79-21.32-2-38.01-19.94-38.01-41.79Z"/><path class="cls-8" d="M135.21,102.84H61.6c-2.86,0-5.17,2.32-5.17,5.17v14.33h83.95v-14.33c0-2.86-2.31-5.17-5.17-5.17Z"/><path class="cls-7" d="M64.36,108.02c0-2.86,2.31-5.17,5.17-5.17h-7.93c-2.86,0-5.17,2.32-5.17,5.17v14.33h7.93v-14.33Z"/><path class="cls-3" d="M98.4,163.04c-8.19,0-14.84-6.66-14.84-14.84s6.66-14.84,14.84-14.84,14.84,6.66,14.84,14.84c0,8.19-6.66,14.84-14.84,14.84Z"/><path class="cls-11" d="M91.4,148.2c0-6.83,4.64-12.59,10.92-14.31-1.25-.34-2.56-.53-3.92-.53-8.19,0-14.84,6.66-14.84,14.84s6.66,14.84,14.84,14.84c1.36,0,2.67-.19,3.92-.53-6.29-1.72-10.92-7.49-10.92-14.31Z"/><path class="cls-7" d="M61.29,176.58c15.78,29.78,58.46,29.75,74.22,0H61.29Z"/><path class="cls-16" d="M102.35,198.74c-14.4-1.35-26.67-9.98-33.13-22.16h-7.93c7.9,14.9,23.96,23.76,41.06,22.16Z"/><path class="cls-4" d="M98.4,141.98c-3.43,0-6.22,2.79-6.22,6.22s2.79,6.22,6.22,6.22,6.22-2.79,6.22-6.22-2.79-6.22-6.22-6.22Z"/><path class="cls-2" d="M99.64,148.2c0-2.03,.98-3.83,2.49-4.97-1.04-.78-2.33-1.25-3.73-1.25-3.43,0-6.22,2.79-6.22,6.22s2.79,6.22,6.22,6.22c1.4,0,2.69-.47,3.73-1.25-1.51-1.14-2.49-2.94-2.49-4.97Z"/><path class="cls-15" d="M134.48,97.67c0,2.86-2.32,5.17-5.17,5.17h-61.81c-2.86,0-5.17-2.32-5.17-5.17V50.66c0-2.86,2.32-5.17,5.17-5.17h61.81c2.86,0,5.17,2.32,5.17,5.17v47h0Z"/><path class="cls-13" d="M70.17,97.67V50.66c0-2.86,2.32-5.17,5.17-5.17h-7.84c-2.86,0-5.17,2.32-5.17,5.17v47c0,2.86,2.32,5.17,5.17,5.17h7.84c-2.86,0-5.17-2.32-5.17-5.17Z"/><path class="cls-5" d="M122.75,86.81c0,2.86-2.32,5.17-5.17,5.17h-38.6c-2.86,0-5.17-2.32-5.17-5.17v-25.23c0-2.86,2.32-5.17,5.17-5.17h38.6c2.86,0,5.17,2.32,5.17,5.17v25.23Z"/><path class="cls-6" d="M81.65,86.81v-25.23c0-2.86,2.32-5.17,5.17-5.17h-7.84c-2.86,0-5.17,2.32-5.17,5.17v25.23c0,2.86,2.32,5.17,5.17,5.17h7.84c-2.86,0-5.17-2.32-5.17-5.17Z"/><path class="cls-17" d="M73.81,79.99v6.83c0,2.86,2.32,5.17,5.17,5.17h38.6c2.86,0,5.17-2.32,5.17-5.17v-6.83h-48.95Z"/><path class="cls-14" d="M81.65,86.81v-6.83h-7.84v6.83c0,2.86,2.32,5.17,5.17,5.17h7.84c-2.86,0-5.17-2.32-5.17-5.17Z"/></svg>