<?xml version="1.0" encoding="UTF-8"?><svg id="Layer_1" xmlns="http://www.w3.org/2000/svg" viewBox="0 0 200 200"><defs><style>.cls-1{fill:#ebeaec;}.cls-2{fill:#ffcb37;}.cls-3{fill:#fcac1f;}.cls-4{fill:#ff941f;}.cls-5{fill:#933116;}.cls-6{fill:#95d6fc;}.cls-7{fill:#a0391e;}.cls-8{fill:#bc4c2e;}.cls-9{fill:#bfbfbf;}.cls-10{fill:#c3e9fc;}.cls-11{fill:#dad9dd;}</style></defs><g><path class="cls-8" d="M14.66,171.52l22.61-22.61,13.79,13.79-22.61,22.61-13.79-13.79Z"/><path class="cls-7" d="M37.29,148.92l-5.71,5.71,6.97,6.97c1.23,1.23,1.23,3.21,0,4.44l-14.68,14.68,4.6,4.6,22.62-22.62-13.79-13.79Z"/></g><path class="cls-5" d="M42.85,170.94l-13.79-13.79-4.16,4.16,13.79,13.79,4.16-4.16Z"/><path class="cls-2" d="M14.68,171.54c-3.05,.19-6.05,1.45-8.38,3.78-5.08,5.08-5.08,13.31,0,18.39,5.08,5.08,13.31,5.08,18.39,0,2.33-2.33,3.59-5.33,3.78-8.38l-13.79-13.79Z"/><path class="cls-3" d="M24.68,175.32c-3.71-3.71-9.09-4.7-13.71-3,1.71,.63,3.31,1.63,4.68,3,5.08,5.08,5.08,13.31,0,18.39-1.37,1.37-2.97,2.37-4.68,3,4.61,1.7,10,.71,13.71-3,5.08-5.08,5.08-13.31,0-18.39Z"/><path class="cls-1" d="M16.64,188.6c-.75,0-1.51-.29-2.08-.86l-2.3-2.3c-1.15-1.15-1.15-3.01,0-4.16,1.15-1.15,3.01-1.15,4.16,0l2.3,2.3c1.15,1.15,1.15,3.01,0,4.16-.57,.58-1.33,.86-2.08,.86Z"/><path class="cls-1" d="M77.55,154.63L195.43,41.16c1.57-1.45,2.32-3.58,2.02-5.69l-3.77-26.39c-.2-1.43-1.33-2.55-2.76-2.76l-26.39-3.77c-2.11-.3-4.24,.45-5.69,2.02L45.37,122.45l12.07,20.11,20.11,12.07Z"/><path class="cls-9" d="M71.64,131.3c-.75,0-1.51-.29-2.08-.86-1.15-1.15-1.15-3.01,0-4.16L172.86,22.97c1.15-1.15,3.01-1.15,4.16,0,1.15,1.15,1.15,3.01,0,4.16l-103.31,103.31c-.57,.57-1.33,.86-2.08,.86h0Z"/><path class="cls-11" d="M197.45,35.47l-3.77-26.39c-.2-1.43-1.33-2.55-2.76-2.76l-9.06-1.3c1.36,.26,2.42,1.34,2.61,2.72l3.95,27.72c.3,2.11-.45,4.24-2.02,5.69l-114.42,110.13,5.56,3.34L195.43,41.16c1.57-1.45,2.32-3.58,2.02-5.69Z"/><path class="cls-3" d="M38.47,133.95l18.96,8.62,8.62,18.96-9.32,5.59c-1.28,.77-2.92,.57-3.97-.49l-19.39-19.39c-1.05-1.05-1.26-2.69-.49-3.97l5.59-9.32Z"/><path class="cls-4" d="M57.44,142.56l-18.96-8.62-3.42,5.69,19.04,19.04c1.44,1.44,1.15,3.86-.6,4.91l-2.35,1.41,1.62,1.62c1.05,1.05,2.69,1.26,3.97,.49l9.32-5.59-8.62-18.96Z"/><path class="cls-2" d="M86.74,163.82l-50.56-50.56c-1.5-1.5-4-1.19-5.09,.63l-3.45,5.75c-.77,1.28-.57,2.92,.49,3.97l14.94,14.94,14.37,4.02,4.02,14.37,14.94,14.94c1.05,1.05,2.69,1.26,3.97,.49l5.75-3.45c1.81-1.09,2.12-3.59,.63-5.09Z"/><path class="cls-3" d="M86.74,163.82l-50.56-50.56c-1.5-1.5-4-1.19-5.09,.63l-1.24,2.07,47.86,47.86c1.5,1.5,1.19,4-.63,5.09l-2.28,1.37,1.59,1.59c1.05,1.05,2.69,1.26,3.97,.49l5.75-3.45c1.81-1.09,2.12-3.59,.63-5.09h0Z"/><path class="cls-10" d="M61.46,156.93l17.24-17.24c.87-.87,1.17-2.16,.79-3.33l-3.45-10.34c-.32-.97-1.09-1.73-2.06-2.06l-10.34-3.45c-1.17-.39-2.46-.09-3.33,.79l-17.24,17.24,18.39,18.39Z"/><path class="cls-6" d="M61.46,141.49c-.75,0-1.51-.29-2.08-.86-1.15-1.15-1.15-3.01,0-4.16l2.3-2.3c1.15-1.15,3.01-1.15,4.16,0s1.15,3.01,0,4.16l-2.3,2.3c-.57,.57-1.33,.86-2.08,.86Z"/><path class="cls-6" d="M79.48,136.37l-3.45-10.34c-.32-.97-1.09-1.73-2.06-2.06l-6.43-2.14c.82,.37,1.46,1.07,1.75,1.93l3.45,10.34c.39,1.17,.09,2.46-.79,3.33l-15,15,4.5,4.5,17.24-17.24c.87-.87,1.17-2.16,.79-3.33h0Z"/></svg>