<?xml version="1.0" encoding="UTF-8"?><svg id="Layer_1" xmlns="http://www.w3.org/2000/svg" viewBox="0 0 200 200"><defs><style>.cls-1{fill:#fdd1a3;}.cls-2{fill:#fff1dd;}.cls-3{fill:#ffe4c1;}.cls-4{fill:#3c6d91;}.cls-5{fill:#345e80;}</style></defs><path class="cls-2" d="M10.3,190.49c-6.92-6.52-7.29-17.45-.82-24.41l33.44-36,2.78-1.32,1.13-2.89,34.09-36.7,2.98-1.57,.92-2.64L150.39,14.37c2.62-2.82,7.03-2.97,9.83-.33l14.91,14.03c2.81,2.64,2.96,7.07,.33,9.9l-84.57,91.04-3.31,2.02-.6,2.18-34.09,36.7-3.42,1.4-.48,2.81-14.44,15.55c-6.47,6.97-17.33,7.33-24.25,.81h0Z"/><path class="cls-3" d="M175.13,28.07l-14.91-14.03c-2.81-2.64-7.21-2.49-9.83,.33l-.61,.65,13.86,13.05c2.81,2.64,2.96,7.07,.33,9.9L23.06,189.67c-1.94,2.09-4.28,3.58-6.79,4.48,6.24,2.23,13.47,.7,18.28-4.48l14.44-15.55,.48-2.81,3.42-1.4,34.09-36.7,.6-2.18,3.31-2.02L175.47,37.96c2.62-2.82,2.47-7.26-.33-9.9h0Z"/><g><path class="cls-4" d="M144.3,113.29L88.31,47.51c-7.18-8.44-8.86-20.3-4.31-30.41l2.9-6.44c.21-.46,.59-.81,1.05-.98l8.41-3.09c9.49-3.49,20.12-1.63,27.89,4.87l64.17,53.65c7.94,6.64,8.99,18.53,2.33,26.47l-18.14,21.63c-7.39,8.81-20.87,8.86-28.32,.1h0Z"/><path class="cls-5" d="M188.43,65.1L124.26,11.46c-6.7-5.6-15.51-7.75-23.9-6.01,4.49,.93,8.76,2.96,12.41,6.01l64.17,53.65c7.94,6.64,8.99,18.53,2.33,26.47l-18.14,21.63c-2.34,2.79-5.29,4.7-8.46,5.73,6.9,2.25,14.86,.33,19.95-5.73l18.14-21.63c6.66-7.94,5.61-19.82-2.33-26.47Z"/><g><path class="cls-2" d="M132.58,12.25c4.23-.14,7.78,3.17,7.92,7.41l2.5,74.59c.14,4.23-3.17,7.78-7.41,7.92-4.23,.14-7.78-3.17-7.92-7.41l-2.5-74.59c-.14-4.23,3.17-7.78,7.41-7.92h0Z"/><path class="cls-3" d="M140.51,19.66c-.14-4.23-3.69-7.55-7.92-7.41-1.57,.05-3.02,.58-4.21,1.43,1.87,1.34,3.13,3.5,3.21,5.98l2.5,74.59c.09,2.66-1.19,5.05-3.2,6.49,1.33,.95,2.96,1.49,4.71,1.43,4.23-.14,7.55-3.69,7.41-7.92l-2.51-74.59Z"/><path class="cls-2" d="M89.43,58.69v.05c.14,4.25,3.7,7.58,7.95,7.43l73.95-2.49c4.25-.14,7.58-3.7,7.43-7.95v-.05c-.14-4.25-3.7-7.58-7.95-7.43l-73.95,2.49c-4.25,.14-7.58,3.7-7.43,7.95h0Z"/><path class="cls-3" d="M178.76,55.68c-.14-4.25-3.7-7.58-7.95-7.43l-3.75,.13c.12,.5,.2,1.03,.21,1.56v.05c.14,4.25-3.18,7.81-7.43,7.95l-70.2,2.36c.84,3.47,4.03,5.99,7.74,5.87l73.95-2.49c4.25-.14,7.58-3.7,7.43-7.95v-.05Z"/></g></g><path class="cls-3" d="M88.23,96.05c.55,.52,1.26,.78,1.97,.78,.76,0,1.53-.3,2.09-.9,1.09-1.16,1.03-2.97-.12-4.06l-7.33-6.9s0,0-.01-.01l-3.91,4.21,7.31,6.88Z"/><path class="cls-3" d="M83.59,122.12c-1.15-1.09-2.97-1.03-4.06,.12-1.09,1.16-1.03,2.97,.12,4.06l7.33,6.9s0,0,.01,.01l3.91-4.21-7.31-6.88Z"/><path class="cls-1" d="M86.98,133.2s0,0,.01,.01l3.91-4.21-6.13-5.77-3.91,4.21,6.12,5.75Z"/><path class="cls-3" d="M50.23,136.96c.55,.52,1.26,.78,1.97,.78,.76,0,1.53-.3,2.09-.9,1.09-1.16,1.03-2.97-.12-4.06l-7.33-6.9s0,0-.01-.01l-3.91,4.21,7.31,6.88Z"/><path class="cls-3" d="M45.59,163.04c-1.15-1.09-2.97-1.03-4.06,.12-1.09,1.16-1.03,2.97,.12,4.06l7.33,6.9s0,0,.01,.01l3.91-4.21-7.31-6.88Z"/><path class="cls-1" d="M48.98,174.11s0,0,.01,.01l3.91-4.21-6.13-5.77-3.91,4.21,6.12,5.75Z"/></svg>